<svg xmlns="http://www.w3.org/2000/svg" xmlns:xlink="http://www.w3.org/1999/xlink" viewBox="0,0,256,256" width="100px" height="100px" fill-rule="nonzero"><g fill="#ffffff" fill-rule="nonzero" stroke="none" stroke-width="1" stroke-linecap="butt" stroke-linejoin="miter" stroke-miterlimit="10" stroke-dasharray="" stroke-dashoffset="0" font-family="none" font-weight="none" font-size="none" text-anchor="none" style="mix-blend-mode: normal"><g transform="scale(5.12,5.12)"><path d="M24.135,46.505l-23.997,-41c-0.389,-0.666 0.092,-1.506 0.864,-1.506h18.377c0.355,0 0.683,0.189 0.863,0.496l4.757,8.129l4.756,-8.129c0.18,-0.307 0.508,-0.496 0.864,-0.496h18.38c0.771,0 1.252,0.84 0.863,1.505l-24,41c-0.385,0.659 -1.341,0.659 -1.727,0.001zM24.999,44.021l22.255,-38.022h-8.329l-13.063,22.322c-0.385,0.659 -1.341,0.659 -1.727,0l-13.064,-22.322h-8.326z"></path></g></g></svg>